<svg aria-roledescription="xychart" role="graphics-document document" viewBox="0 0 700 500" style="max-width: 700px; background-color: white;" xmlns:xlink="http://www.w3.org/1999/xlink" xmlns="http://www.w3.org/2000/svg" width="100%" id="my-svg"><style>#my-svg{font-family:"trebuchet ms",verdana,arial,sans-serif;font-size:16px;fill:#333;}@keyframes edge-animation-frame{from{stroke-dashoffset:0;}}@keyframes dash{to{stroke-dashoffset:0;}}#my-svg .edge-animation-slow{stroke-dasharray:9,5!important;stroke-dashoffset:900;animation:dash 50s linear infinite;stroke-linecap:round;}#my-svg .edge-animation-fast{stroke-dasharray:9,5!important;stroke-dashoffset:900;animation:dash 20s linear infinite;stroke-linecap:round;}#my-svg .error-icon{fill:#552222;}#my-svg .error-text{fill:#552222;stroke:#552222;}#my-svg .edge-thickness-normal{stroke-width:1px;}#my-svg .edge-thickness-thick{stroke-width:3.5px;}#my-svg .edge-pattern-solid{stroke-dasharray:0;}#my-svg .edge-thickness-invisible{stroke-width:0;fill:none;}#my-svg .edge-pattern-dashed{stroke-dasharray:3;}#my-svg .edge-pattern-dotted{stroke-dasharray:2;}#my-svg .marker{fill:#333333;stroke:#333333;}#my-svg .marker.cross{stroke:#333333;}#my-svg svg{font-family:"trebuchet ms",verdana,arial,sans-serif;font-size:16px;}#my-svg p{margin:0;}#my-svg :root{--mermaid-font-family:"trebuchet ms",verdana,arial,sans-serif;}</style><g/><g class="main"><rect fill="white" class="background" height="500" width="700"/><g class="chart-title"><text transform="translate(350, 21) rotate(0)" text-anchor="middle" dominant-baseline="middle" font-size="20" fill="#131300" y="0" x="0">Indexing Throughput by Language</text></g><g class="plot"><g class="bar-plot-0"><rect stroke-width="0" stroke="#ECECFF" fill="#ECECFF" height="265.67" width="47.185498046875" y="201.32999999999998" x="68.81399116516113"/><rect stroke-width="0" stroke="#ECECFF" fill="#ECECFF" height="255.445" width="47.185498046875" y="211.555" x="133.5649675157335"/><rect stroke-width="0" stroke="#ECECFF" fill="#ECECFF" height="387.34749999999997" width="47.185498046875" y="79.6525" x="198.31594386630587"/><rect stroke-width="0" stroke="#ECECFF" fill="#ECECFF" height="128.65499999999997" width="47.185498046875" y="338.345" x="263.06692021687826"/><rect stroke-width="0" stroke="#ECECFF" fill="#ECECFF" height="183.86999999999995" width="47.185498046875" y="283.13000000000005" x="327.81789656745065"/><rect stroke-width="0" stroke="#ECECFF" fill="#ECECFF" height="141.9475" width="47.185498046875" y="325.0525" x="392.56887291802303"/><rect stroke-width="0" stroke="#ECECFF" fill="#ECECFF" height="93.88999999999999" width="47.185498046875" y="373.11" x="457.31984926859536"/><rect stroke-width="0" stroke="#ECECFF" fill="#ECECFF" height="114.34000000000003" width="47.185498046875" y="352.65999999999997" x="522.0708256191677"/><rect stroke-width="0" stroke="#ECECFF" fill="#ECECFF" height="69.35000000000002" width="47.185498046875" y="397.65" x="586.8218019697401"/><rect stroke-width="0" stroke="#ECECFF" fill="#ECECFF" height="34.58499999999998" width="47.185498046875" y="432.415" x="651.5727783203125"/></g></g><g class="bottom-axis"><g class="axis-line"><path stroke-width="2" stroke="#131300" fill="none" d="M 67.57226753234863,468 L 700,468"/></g><g class="label"><text transform="translate(92.40674018859863, 479) rotate(0)" text-anchor="middle" dominant-baseline="text-before-edge" font-size="14" fill="#131300" y="0" x="0">PHP</text><text transform="translate(157.15771653917102, 479) rotate(0)" text-anchor="middle" dominant-baseline="text-before-edge" font-size="14" fill="#131300" y="0" x="0">Ruby</text><text transform="translate(221.90869288974338, 479) rotate(0)" text-anchor="middle" dominant-baseline="text-before-edge" font-size="14" fill="#131300" y="0" x="0">TS/TSX</text><text transform="translate(286.65966924031574, 479) rotate(0)" text-anchor="middle" dominant-baseline="text-before-edge" font-size="14" fill="#131300" y="0" x="0">Go</text><text transform="translate(351.4106455908881, 479) rotate(0)" text-anchor="middle" dominant-baseline="text-before-edge" font-size="14" fill="#131300" y="0" x="0">C#</text><text transform="translate(416.1616219414605, 479) rotate(0)" text-anchor="middle" dominant-baseline="text-before-edge" font-size="14" fill="#131300" y="0" x="0">Scala</text><text transform="translate(480.91259829203284, 479) rotate(0)" text-anchor="middle" dominant-baseline="text-before-edge" font-size="14" fill="#131300" y="0" x="0">Python</text><text transform="translate(545.6635746426052, 479) rotate(0)" text-anchor="middle" dominant-baseline="text-before-edge" font-size="14" fill="#131300" y="0" x="0">C++</text><text transform="translate(610.4145509931776, 479) rotate(0)" text-anchor="middle" dominant-baseline="text-before-edge" font-size="14" fill="#131300" y="0" x="0">Java</text><text transform="translate(675.16552734375, 479) rotate(0)" text-anchor="middle" dominant-baseline="text-before-edge" font-size="14" fill="#131300" y="0" x="0">C</text></g><g class="ticks"><path stroke-width="2" stroke="#131300" fill="none" d="M 92.40674018859863,469 L 92.40674018859863,474"/><path stroke-width="2" stroke="#131300" fill="none" d="M 157.15771653917102,469 L 157.15771653917102,474"/><path stroke-width="2" stroke="#131300" fill="none" d="M 221.90869288974338,469 L 221.90869288974338,474"/><path stroke-width="2" stroke="#131300" fill="none" d="M 286.65966924031574,469 L 286.65966924031574,474"/><path stroke-width="2" stroke="#131300" fill="none" d="M 351.4106455908881,469 L 351.4106455908881,474"/><path stroke-width="2" stroke="#131300" fill="none" d="M 416.1616219414605,469 L 416.1616219414605,474"/><path stroke-width="2" stroke="#131300" fill="none" d="M 480.91259829203284,469 L 480.91259829203284,474"/><path stroke-width="2" stroke="#131300" fill="none" d="M 545.6635746426052,469 L 545.6635746426052,474"/><path stroke-width="2" stroke="#131300" fill="none" d="M 610.4145509931776,469 L 610.4145509931776,474"/><path stroke-width="2" stroke="#131300" fill="none" d="M 675.16552734375,469 L 675.16552734375,474"/></g></g><g class="left-axis"><g class="axisl-line"><path stroke-width="2" stroke="#131300" fill="none" d="M 66.57226753234863,42 L 66.57226753234863,467"/></g><g class="label"><text transform="translate(55.57226753234863, 50) rotate(0)" text-anchor="end" dominant-baseline="middle" font-size="14" fill="#131300" y="0" x="0">400</text><text transform="translate(55.57226753234863, 101.125) rotate(0)" text-anchor="end" dominant-baseline="middle" font-size="14" fill="#131300" y="0" x="0">350</text><text transform="translate(55.57226753234863, 152.25) rotate(0)" text-anchor="end" dominant-baseline="middle" font-size="14" fill="#131300" y="0" x="0">300</text><text transform="translate(55.57226753234863, 203.375) rotate(0)" text-anchor="end" dominant-baseline="middle" font-size="14" fill="#131300" y="0" x="0">250</text><text transform="translate(55.57226753234863, 254.5) rotate(0)" text-anchor="end" dominant-baseline="middle" font-size="14" fill="#131300" y="0" x="0">200</text><text transform="translate(55.57226753234863, 305.625) rotate(0)" text-anchor="end" dominant-baseline="middle" font-size="14" fill="#131300" y="0" x="0">150</text><text transform="translate(55.57226753234863, 356.75) rotate(0)" text-anchor="end" dominant-baseline="middle" font-size="14" fill="#131300" y="0" x="0">100</text><text transform="translate(55.57226753234863, 407.875) rotate(0)" text-anchor="end" dominant-baseline="middle" font-size="14" fill="#131300" y="0" x="0">50</text><text transform="translate(55.57226753234863, 459) rotate(0)" text-anchor="end" dominant-baseline="middle" font-size="14" fill="#131300" y="0" x="0">0</text></g><g class="ticks"><path stroke-width="2" stroke="#131300" fill="none" d="M 65.57226753234863,50 L 60.57226753234863,50"/><path stroke-width="2" stroke="#131300" fill="none" d="M 65.57226753234863,101.125 L 60.57226753234863,101.125"/><path stroke-width="2" stroke="#131300" fill="none" d="M 65.57226753234863,152.25 L 60.57226753234863,152.25"/><path stroke-width="2" stroke="#131300" fill="none" d="M 65.57226753234863,203.375 L 60.57226753234863,203.375"/><path stroke-width="2" stroke="#131300" fill="none" d="M 65.57226753234863,254.5 L 60.57226753234863,254.5"/><path stroke-width="2" stroke="#131300" fill="none" d="M 65.57226753234863,305.625 L 60.57226753234863,305.625"/><path stroke-width="2" stroke="#131300" fill="none" d="M 65.57226753234863,356.75 L 60.57226753234863,356.75"/><path stroke-width="2" stroke="#131300" fill="none" d="M 65.57226753234863,407.875 L 60.57226753234863,407.875"/><path stroke-width="2" stroke="#131300" fill="none" d="M 65.57226753234863,459 L 60.57226753234863,459"/></g><g class="title"><text transform="translate(5, 254.5) rotate(270)" text-anchor="middle" dominant-baseline="text-before-edge" font-size="16" fill="#131300" y="0" x="0">Files/second</text></g></g></g><g class="mermaid-tmp-group"/></svg>